<?xml version="1.0" encoding="utf-8" standalone="no"?>
<!DOCTYPE svg PUBLIC "-//W3C//DTD SVG 1.1//EN"
  "http://www.w3.org/Graphics/SVG/1.1/DTD/svg11.dtd">
<svg xmlns:xlink="http://www.w3.org/1999/xlink" width="460.8pt" height="345.6pt" viewBox="0 0 460.8 345.6" xmlns="http://www.w3.org/2000/svg" version="1.1">
 <metadata>
  <rdf:RDF xmlns:dc="http://purl.org/dc/elements/1.1/" xmlns:cc="http://creativecommons.org/ns#" xmlns:rdf="http://www.w3.org/1999/02/22-rdf-syntax-ns#">
   <cc:Work>
    <dc:type rdf:resource="http://purl.org/dc/dcmitype/StillImage"/>
    <dc:date>2024-02-09T18:48:29.448066</dc:date>
    <dc:format>image/svg+xml</dc:format>
    <dc:creator>
     <cc:Agent>
      <dc:title>Matplotlib v3.5.1, https://matplotlib.org/</dc:title>
     </cc:Agent>
    </dc:creator>
   </cc:Work>
  </rdf:RDF>
 </metadata>
 <defs>
  <style type="text/css">*{stroke-linejoin: round; stroke-linecap: butt}</style>
 </defs>
 <g id="figure_1">
  <g id="patch_1">
   <path d="M 0 345.6 
L 460.8 345.6 
L 460.8 0 
L 0 0 
z
" style="fill: #ffffff"/>
  </g>
  <g id="axes_1">
   <g id="patch_2">
    <path d="M 340.475904 176.656896 
C 340.475904 159.859617 336.49992 143.298451 328.874114 128.331966 
C 321.248309 113.365481 310.187069 100.414434 296.597784 90.541241 
C 283.0085 80.668049 267.27321 74.15028 250.682733 71.522607 
C 234.092257 68.894935 217.113005 70.231232 201.137844 75.421878 
L 234.031104 176.656896 
L 340.475904 176.656896 
z
" style="fill: #004c00; opacity: 0.5; stroke: #004c00; stroke-linejoin: miter"/>
   </g>
   <g id="patch_3">
    <path d="M 201.137844 75.421878 
C 174.298945 84.142367 151.99974 103.187691 139.188089 128.331975 
C 126.376439 153.47626 124.075597 182.711257 132.796086 209.550156 
C 141.516575 236.389055 160.561899 258.68826 185.706183 271.499911 
C 210.850468 284.311561 240.085465 286.612403 266.924364 277.891914 
L 234.031104 176.656896 
L 201.137844 75.421878 
z
" style="fill: #334c33; opacity: 0.5; stroke: #334c33; stroke-linejoin: miter"/>
   </g>
   <g id="patch_4">
    <path d="M 266.924364 277.891914 
C 272.22774 276.168742 277.38752 274.031491 282.356039 271.499904 
C 287.324559 268.968316 292.086473 266.050211 296.597794 262.772543 
L 234.031104 176.656896 
L 266.924364 277.891914 
z
" style="fill: #4c4c33; opacity: 0.5; stroke: #4c4c33; stroke-linejoin: miter"/>
   </g>
   <g id="patch_5">
    <path d="M 296.597794 262.772543 
C 305.634306 256.207132 313.581352 248.260085 320.146761 239.223572 
C 326.712171 230.18706 331.814488 220.173197 335.266128 209.550139 
L 234.031104 176.656896 
L 296.597794 262.772543 
z
" style="fill: #4c3333; opacity: 0.5; stroke: #4c3333; stroke-linejoin: miter"/>
   </g>
   <g id="patch_6">
    <path d="M 335.266128 209.550139 
C 336.989299 204.246762 338.293068 198.816169 339.165393 193.308522 
C 340.037718 187.800875 340.475905 182.233186 340.475904 176.656886 
L 234.031104 176.656896 
L 335.266128 209.550139 
z
" style="fill: #4c0000; opacity: 0.5; stroke: #4c0000; stroke-linejoin: miter"/>
   </g>
   <g id="patch_7">
    <path d="M 342.6048 174.528 
C 342.6048 157.730721 338.628816 141.169555 331.00301 126.20307 
C 323.377205 111.236585 312.315965 98.285538 298.72668 88.412345 
C 285.137396 78.539153 269.402106 72.021384 252.811629 69.393711 
C 236.221153 66.766039 219.241901 68.102336 203.26674 73.292982 
L 236.16 174.528 
L 342.6048 174.528 
z
" style="fill: #00ff00"/>
   </g>
   <g id="patch_8">
    <path d="M 203.26674 73.292982 
C 176.427841 82.013471 154.128636 101.058795 141.316985 126.203079 
C 128.505335 151.347364 126.204493 180.582361 134.924982 207.42126 
C 143.645471 234.260159 162.690795 256.559364 187.835079 269.371015 
C 212.979364 282.182665 242.214361 284.483507 269.05326 275.763018 
L 236.16 174.528 
L 203.26674 73.292982 
z
" style="fill: #aaffaa"/>
   </g>
   <g id="patch_9">
    <path d="M 269.05326 275.763018 
C 274.356636 274.039846 279.516416 271.902595 284.484935 269.371008 
C 289.453455 266.83942 294.215369 263.921315 298.72669 260.643647 
L 236.16 174.528 
L 269.05326 275.763018 
z
" style="fill: #ffffaa"/>
   </g>
   <g id="patch_10">
    <path d="M 298.72669 260.643647 
C 307.763202 254.078236 315.710248 246.131189 322.275657 237.094676 
C 328.841067 228.058164 333.943384 218.044301 337.395024 207.421243 
L 236.16 174.528 
L 298.72669 260.643647 
z
" style="fill: #ffaaaa"/>
   </g>
   <g id="patch_11">
    <path d="M 337.395024 207.421243 
C 339.118195 202.117866 340.421964 196.687273 341.294289 191.179626 
C 342.166614 185.671979 342.604801 180.10429 342.6048 174.52799 
L 236.16 174.528 
L 337.395024 207.421243 
z
" style="fill: #ff0000"/>
   </g>
   <g id="matplotlib.axis_1"/>
   <g id="matplotlib.axis_2"/>
   <g id="text_1">
    <!-- Very helpful (6x) -->
    <g transform="translate(304.983348 82.560155)scale(0.1 -0.1)">
     <defs>
      <path id="DejaVuSans-56" d="M 1831 0 
L 50 4666 
L 709 4666 
L 2188 738 
L 3669 4666 
L 4325 4666 
L 2547 0 
L 1831 0 
z
" transform="scale(0.015625)"/>
      <path id="DejaVuSans-65" d="M 3597 1894 
L 3597 1613 
L 953 1613 
Q 991 1019 1311 708 
Q 1631 397 2203 397 
Q 2534 397 2845 478 
Q 3156 559 3463 722 
L 3463 178 
Q 3153 47 2828 -22 
Q 2503 -91 2169 -91 
Q 1331 -91 842 396 
Q 353 884 353 1716 
Q 353 2575 817 3079 
Q 1281 3584 2069 3584 
Q 2775 3584 3186 3129 
Q 3597 2675 3597 1894 
z
M 3022 2063 
Q 3016 2534 2758 2815 
Q 2500 3097 2075 3097 
Q 1594 3097 1305 2825 
Q 1016 2553 972 2059 
L 3022 2063 
z
" transform="scale(0.015625)"/>
      <path id="DejaVuSans-72" d="M 2631 2963 
Q 2534 3019 2420 3045 
Q 2306 3072 2169 3072 
Q 1681 3072 1420 2755 
Q 1159 2438 1159 1844 
L 1159 0 
L 581 0 
L 581 3500 
L 1159 3500 
L 1159 2956 
Q 1341 3275 1631 3429 
Q 1922 3584 2338 3584 
Q 2397 3584 2469 3576 
Q 2541 3569 2628 3553 
L 2631 2963 
z
" transform="scale(0.015625)"/>
      <path id="DejaVuSans-79" d="M 2059 -325 
Q 1816 -950 1584 -1140 
Q 1353 -1331 966 -1331 
L 506 -1331 
L 506 -850 
L 844 -850 
Q 1081 -850 1212 -737 
Q 1344 -625 1503 -206 
L 1606 56 
L 191 3500 
L 800 3500 
L 1894 763 
L 2988 3500 
L 3597 3500 
L 2059 -325 
z
" transform="scale(0.015625)"/>
      <path id="DejaVuSans-20" transform="scale(0.015625)"/>
      <path id="DejaVuSans-68" d="M 3513 2113 
L 3513 0 
L 2938 0 
L 2938 2094 
Q 2938 2591 2744 2837 
Q 2550 3084 2163 3084 
Q 1697 3084 1428 2787 
Q 1159 2491 1159 1978 
L 1159 0 
L 581 0 
L 581 4863 
L 1159 4863 
L 1159 2956 
Q 1366 3272 1645 3428 
Q 1925 3584 2291 3584 
Q 2894 3584 3203 3211 
Q 3513 2838 3513 2113 
z
" transform="scale(0.015625)"/>
      <path id="DejaVuSans-6c" d="M 603 4863 
L 1178 4863 
L 1178 0 
L 603 0 
L 603 4863 
z
" transform="scale(0.015625)"/>
      <path id="DejaVuSans-70" d="M 1159 525 
L 1159 -1331 
L 581 -1331 
L 581 3500 
L 1159 3500 
L 1159 2969 
Q 1341 3281 1617 3432 
Q 1894 3584 2278 3584 
Q 2916 3584 3314 3078 
Q 3713 2572 3713 1747 
Q 3713 922 3314 415 
Q 2916 -91 2278 -91 
Q 1894 -91 1617 61 
Q 1341 213 1159 525 
z
M 3116 1747 
Q 3116 2381 2855 2742 
Q 2594 3103 2138 3103 
Q 1681 3103 1420 2742 
Q 1159 2381 1159 1747 
Q 1159 1113 1420 752 
Q 1681 391 2138 391 
Q 2594 391 2855 752 
Q 3116 1113 3116 1747 
z
" transform="scale(0.015625)"/>
      <path id="DejaVuSans-66" d="M 2375 4863 
L 2375 4384 
L 1825 4384 
Q 1516 4384 1395 4259 
Q 1275 4134 1275 3809 
L 1275 3500 
L 2222 3500 
L 2222 3053 
L 1275 3053 
L 1275 0 
L 697 0 
L 697 3053 
L 147 3053 
L 147 3500 
L 697 3500 
L 697 3744 
Q 697 4328 969 4595 
Q 1241 4863 1831 4863 
L 2375 4863 
z
" transform="scale(0.015625)"/>
      <path id="DejaVuSans-75" d="M 544 1381 
L 544 3500 
L 1119 3500 
L 1119 1403 
Q 1119 906 1312 657 
Q 1506 409 1894 409 
Q 2359 409 2629 706 
Q 2900 1003 2900 1516 
L 2900 3500 
L 3475 3500 
L 3475 0 
L 2900 0 
L 2900 538 
Q 2691 219 2414 64 
Q 2138 -91 1772 -91 
Q 1169 -91 856 284 
Q 544 659 544 1381 
z
M 1991 3584 
L 1991 3584 
z
" transform="scale(0.015625)"/>
      <path id="DejaVuSans-28" d="M 1984 4856 
Q 1566 4138 1362 3434 
Q 1159 2731 1159 2009 
Q 1159 1288 1364 580 
Q 1569 -128 1984 -844 
L 1484 -844 
Q 1016 -109 783 600 
Q 550 1309 550 2009 
Q 550 2706 781 3412 
Q 1013 4119 1484 4856 
L 1984 4856 
z
" transform="scale(0.015625)"/>
      <path id="DejaVuSans-36" d="M 2113 2584 
Q 1688 2584 1439 2293 
Q 1191 2003 1191 1497 
Q 1191 994 1439 701 
Q 1688 409 2113 409 
Q 2538 409 2786 701 
Q 3034 994 3034 1497 
Q 3034 2003 2786 2293 
Q 2538 2584 2113 2584 
z
M 3366 4563 
L 3366 3988 
Q 3128 4100 2886 4159 
Q 2644 4219 2406 4219 
Q 1781 4219 1451 3797 
Q 1122 3375 1075 2522 
Q 1259 2794 1537 2939 
Q 1816 3084 2150 3084 
Q 2853 3084 3261 2657 
Q 3669 2231 3669 1497 
Q 3669 778 3244 343 
Q 2819 -91 2113 -91 
Q 1303 -91 875 529 
Q 447 1150 447 2328 
Q 447 3434 972 4092 
Q 1497 4750 2381 4750 
Q 2619 4750 2861 4703 
Q 3103 4656 3366 4563 
z
" transform="scale(0.015625)"/>
      <path id="DejaVuSans-78" d="M 3513 3500 
L 2247 1797 
L 3578 0 
L 2900 0 
L 1881 1375 
L 863 0 
L 184 0 
L 1544 1831 
L 300 3500 
L 978 3500 
L 1906 2253 
L 2834 3500 
L 3513 3500 
z
" transform="scale(0.015625)"/>
      <path id="DejaVuSans-29" d="M 513 4856 
L 1013 4856 
Q 1481 4119 1714 3412 
Q 1947 2706 1947 2009 
Q 1947 1309 1714 600 
Q 1481 -109 1013 -844 
L 513 -844 
Q 928 -128 1133 580 
Q 1338 1288 1338 2009 
Q 1338 2731 1133 3434 
Q 928 4138 513 4856 
z
" transform="scale(0.015625)"/>
     </defs>
     <use xlink:href="#DejaVuSans-56"/>
     <use xlink:href="#DejaVuSans-65" x="60.658203"/>
     <use xlink:href="#DejaVuSans-72" x="122.181641"/>
     <use xlink:href="#DejaVuSans-79" x="163.294922"/>
     <use xlink:href="#DejaVuSans-20" x="222.474609"/>
     <use xlink:href="#DejaVuSans-68" x="254.261719"/>
     <use xlink:href="#DejaVuSans-65" x="317.640625"/>
     <use xlink:href="#DejaVuSans-6c" x="379.164062"/>
     <use xlink:href="#DejaVuSans-70" x="406.947266"/>
     <use xlink:href="#DejaVuSans-66" x="470.423828"/>
     <use xlink:href="#DejaVuSans-75" x="505.628906"/>
     <use xlink:href="#DejaVuSans-6c" x="569.007812"/>
     <use xlink:href="#DejaVuSans-20" x="596.791016"/>
     <use xlink:href="#DejaVuSans-28" x="628.578125"/>
     <use xlink:href="#DejaVuSans-36" x="667.591797"/>
     <use xlink:href="#DejaVuSans-78" x="731.214844"/>
     <use xlink:href="#DejaVuSans-29" x="790.394531"/>
    </g>
   </g>
   <g id="text_2">
    <!-- 30.0% -->
    <g transform="translate(257.816414 125.617982)scale(0.1 -0.1)">
     <defs>
      <path id="DejaVuSans-33" d="M 2597 2516 
Q 3050 2419 3304 2112 
Q 3559 1806 3559 1356 
Q 3559 666 3084 287 
Q 2609 -91 1734 -91 
Q 1441 -91 1130 -33 
Q 819 25 488 141 
L 488 750 
Q 750 597 1062 519 
Q 1375 441 1716 441 
Q 2309 441 2620 675 
Q 2931 909 2931 1356 
Q 2931 1769 2642 2001 
Q 2353 2234 1838 2234 
L 1294 2234 
L 1294 2753 
L 1863 2753 
Q 2328 2753 2575 2939 
Q 2822 3125 2822 3475 
Q 2822 3834 2567 4026 
Q 2313 4219 1838 4219 
Q 1578 4219 1281 4162 
Q 984 4106 628 3988 
L 628 4550 
Q 988 4650 1302 4700 
Q 1616 4750 1894 4750 
Q 2613 4750 3031 4423 
Q 3450 4097 3450 3541 
Q 3450 3153 3228 2886 
Q 3006 2619 2597 2516 
z
" transform="scale(0.015625)"/>
      <path id="DejaVuSans-30" d="M 2034 4250 
Q 1547 4250 1301 3770 
Q 1056 3291 1056 2328 
Q 1056 1369 1301 889 
Q 1547 409 2034 409 
Q 2525 409 2770 889 
Q 3016 1369 3016 2328 
Q 3016 3291 2770 3770 
Q 2525 4250 2034 4250 
z
M 2034 4750 
Q 2819 4750 3233 4129 
Q 3647 3509 3647 2328 
Q 3647 1150 3233 529 
Q 2819 -91 2034 -91 
Q 1250 -91 836 529 
Q 422 1150 422 2328 
Q 422 3509 836 4129 
Q 1250 4750 2034 4750 
z
" transform="scale(0.015625)"/>
      <path id="DejaVuSans-2e" d="M 684 794 
L 1344 794 
L 1344 0 
L 684 0 
L 684 794 
z
" transform="scale(0.015625)"/>
      <path id="DejaVuSans-25" d="M 4653 2053 
Q 4381 2053 4226 1822 
Q 4072 1591 4072 1178 
Q 4072 772 4226 539 
Q 4381 306 4653 306 
Q 4919 306 5073 539 
Q 5228 772 5228 1178 
Q 5228 1588 5073 1820 
Q 4919 2053 4653 2053 
z
M 4653 2450 
Q 5147 2450 5437 2106 
Q 5728 1763 5728 1178 
Q 5728 594 5436 251 
Q 5144 -91 4653 -91 
Q 4153 -91 3862 251 
Q 3572 594 3572 1178 
Q 3572 1766 3864 2108 
Q 4156 2450 4653 2450 
z
M 1428 4353 
Q 1159 4353 1004 4120 
Q 850 3888 850 3481 
Q 850 3069 1003 2837 
Q 1156 2606 1428 2606 
Q 1700 2606 1854 2837 
Q 2009 3069 2009 3481 
Q 2009 3884 1853 4118 
Q 1697 4353 1428 4353 
z
M 4250 4750 
L 4750 4750 
L 1831 -91 
L 1331 -91 
L 4250 4750 
z
M 1428 4750 
Q 1922 4750 2215 4408 
Q 2509 4066 2509 3481 
Q 2509 2891 2217 2550 
Q 1925 2209 1428 2209 
Q 931 2209 642 2551 
Q 353 2894 353 3481 
Q 353 4063 643 4406 
Q 934 4750 1428 4750 
z
" transform="scale(0.015625)"/>
     </defs>
     <use xlink:href="#DejaVuSans-33"/>
     <use xlink:href="#DejaVuSans-30" x="63.623047"/>
     <use xlink:href="#DejaVuSans-2e" x="127.246094"/>
     <use xlink:href="#DejaVuSans-30" x="159.033203"/>
     <use xlink:href="#DejaVuSans-25" x="222.65625"/>
    </g>
   </g>
   <g id="text_3">
    <!-- Helpful (10x) -->
    <g transform="translate(59.740542 213.469961)scale(0.1 -0.1)">
     <defs>
      <path id="DejaVuSans-48" d="M 628 4666 
L 1259 4666 
L 1259 2753 
L 3553 2753 
L 3553 4666 
L 4184 4666 
L 4184 0 
L 3553 0 
L 3553 2222 
L 1259 2222 
L 1259 0 
L 628 0 
L 628 4666 
z
" transform="scale(0.015625)"/>
      <path id="DejaVuSans-31" d="M 794 531 
L 1825 531 
L 1825 4091 
L 703 3866 
L 703 4441 
L 1819 4666 
L 2450 4666 
L 2450 531 
L 3481 531 
L 3481 0 
L 794 0 
L 794 531 
z
" transform="scale(0.015625)"/>
     </defs>
     <use xlink:href="#DejaVuSans-48"/>
     <use xlink:href="#DejaVuSans-65" x="75.195312"/>
     <use xlink:href="#DejaVuSans-6c" x="136.71875"/>
     <use xlink:href="#DejaVuSans-70" x="164.501953"/>
     <use xlink:href="#DejaVuSans-66" x="227.978516"/>
     <use xlink:href="#DejaVuSans-75" x="263.183594"/>
     <use xlink:href="#DejaVuSans-6c" x="326.5625"/>
     <use xlink:href="#DejaVuSans-20" x="354.345703"/>
     <use xlink:href="#DejaVuSans-28" x="386.132812"/>
     <use xlink:href="#DejaVuSans-31" x="425.146484"/>
     <use xlink:href="#DejaVuSans-30" x="488.769531"/>
     <use xlink:href="#DejaVuSans-78" x="552.392578"/>
     <use xlink:href="#DejaVuSans-29" x="611.572266"/>
    </g>
   </g>
   <g id="text_4">
    <!-- 50.0% -->
    <g transform="translate(159.535395 197.023331)scale(0.1 -0.1)">
     <defs>
      <path id="DejaVuSans-35" d="M 691 4666 
L 3169 4666 
L 3169 4134 
L 1269 4134 
L 1269 2991 
Q 1406 3038 1543 3061 
Q 1681 3084 1819 3084 
Q 2600 3084 3056 2656 
Q 3513 2228 3513 1497 
Q 3513 744 3044 326 
Q 2575 -91 1722 -91 
Q 1428 -91 1123 -41 
Q 819 9 494 109 
L 494 744 
Q 775 591 1075 516 
Q 1375 441 1709 441 
Q 2250 441 2565 725 
Q 2881 1009 2881 1497 
Q 2881 1984 2565 2268 
Q 2250 2553 1709 2553 
Q 1456 2553 1204 2497 
Q 953 2441 691 2322 
L 691 4666 
z
" transform="scale(0.015625)"/>
     </defs>
     <use xlink:href="#DejaVuSans-35"/>
     <use xlink:href="#DejaVuSans-30" x="63.623047"/>
     <use xlink:href="#DejaVuSans-2e" x="127.246094"/>
     <use xlink:href="#DejaVuSans-30" x="159.033203"/>
     <use xlink:href="#DejaVuSans-25" x="222.65625"/>
    </g>
   </g>
   <g id="text_5">
    <!-- Undecided (1x) -->
    <g transform="translate(289.317429 281.614683)scale(0.1 -0.1)">
     <defs>
      <path id="DejaVuSans-55" d="M 556 4666 
L 1191 4666 
L 1191 1831 
Q 1191 1081 1462 751 
Q 1734 422 2344 422 
Q 2950 422 3222 751 
Q 3494 1081 3494 1831 
L 3494 4666 
L 4128 4666 
L 4128 1753 
Q 4128 841 3676 375 
Q 3225 -91 2344 -91 
Q 1459 -91 1007 375 
Q 556 841 556 1753 
L 556 4666 
z
" transform="scale(0.015625)"/>
      <path id="DejaVuSans-6e" d="M 3513 2113 
L 3513 0 
L 2938 0 
L 2938 2094 
Q 2938 2591 2744 2837 
Q 2550 3084 2163 3084 
Q 1697 3084 1428 2787 
Q 1159 2491 1159 1978 
L 1159 0 
L 581 0 
L 581 3500 
L 1159 3500 
L 1159 2956 
Q 1366 3272 1645 3428 
Q 1925 3584 2291 3584 
Q 2894 3584 3203 3211 
Q 3513 2838 3513 2113 
z
" transform="scale(0.015625)"/>
      <path id="DejaVuSans-64" d="M 2906 2969 
L 2906 4863 
L 3481 4863 
L 3481 0 
L 2906 0 
L 2906 525 
Q 2725 213 2448 61 
Q 2172 -91 1784 -91 
Q 1150 -91 751 415 
Q 353 922 353 1747 
Q 353 2572 751 3078 
Q 1150 3584 1784 3584 
Q 2172 3584 2448 3432 
Q 2725 3281 2906 2969 
z
M 947 1747 
Q 947 1113 1208 752 
Q 1469 391 1925 391 
Q 2381 391 2643 752 
Q 2906 1113 2906 1747 
Q 2906 2381 2643 2742 
Q 2381 3103 1925 3103 
Q 1469 3103 1208 2742 
Q 947 2381 947 1747 
z
" transform="scale(0.015625)"/>
      <path id="DejaVuSans-63" d="M 3122 3366 
L 3122 2828 
Q 2878 2963 2633 3030 
Q 2388 3097 2138 3097 
Q 1578 3097 1268 2742 
Q 959 2388 959 1747 
Q 959 1106 1268 751 
Q 1578 397 2138 397 
Q 2388 397 2633 464 
Q 2878 531 3122 666 
L 3122 134 
Q 2881 22 2623 -34 
Q 2366 -91 2075 -91 
Q 1284 -91 818 406 
Q 353 903 353 1747 
Q 353 2603 823 3093 
Q 1294 3584 2113 3584 
Q 2378 3584 2631 3529 
Q 2884 3475 3122 3366 
z
" transform="scale(0.015625)"/>
      <path id="DejaVuSans-69" d="M 603 3500 
L 1178 3500 
L 1178 0 
L 603 0 
L 603 3500 
z
M 603 4863 
L 1178 4863 
L 1178 4134 
L 603 4134 
L 603 4863 
z
" transform="scale(0.015625)"/>
     </defs>
     <use xlink:href="#DejaVuSans-55"/>
     <use xlink:href="#DejaVuSans-6e" x="73.193359"/>
     <use xlink:href="#DejaVuSans-64" x="136.572266"/>
     <use xlink:href="#DejaVuSans-65" x="200.048828"/>
     <use xlink:href="#DejaVuSans-63" x="261.572266"/>
     <use xlink:href="#DejaVuSans-69" x="316.552734"/>
     <use xlink:href="#DejaVuSans-64" x="344.335938"/>
     <use xlink:href="#DejaVuSans-65" x="407.8125"/>
     <use xlink:href="#DejaVuSans-64" x="469.335938"/>
     <use xlink:href="#DejaVuSans-20" x="532.8125"/>
     <use xlink:href="#DejaVuSans-28" x="564.599609"/>
     <use xlink:href="#DejaVuSans-31" x="603.613281"/>
     <use xlink:href="#DejaVuSans-78" x="667.236328"/>
     <use xlink:href="#DejaVuSans-29" x="726.416016"/>
    </g>
   </g>
   <g id="text_6">
    <!-- 5.0% -->
    <g transform="translate(252.452617 234.19318)scale(0.1 -0.1)">
     <use xlink:href="#DejaVuSans-35"/>
     <use xlink:href="#DejaVuSans-2e" x="63.623047"/>
     <use xlink:href="#DejaVuSans-30" x="95.410156"/>
     <use xlink:href="#DejaVuSans-25" x="159.033203"/>
    </g>
   </g>
   <g id="text_7">
    <!-- Irrelevant (2x) -->
    <g transform="translate(330.887223 246.110719)scale(0.1 -0.1)">
     <defs>
      <path id="DejaVuSans-49" d="M 628 4666 
L 1259 4666 
L 1259 0 
L 628 0 
L 628 4666 
z
" transform="scale(0.015625)"/>
      <path id="DejaVuSans-76" d="M 191 3500 
L 800 3500 
L 1894 563 
L 2988 3500 
L 3597 3500 
L 2284 0 
L 1503 0 
L 191 3500 
z
" transform="scale(0.015625)"/>
      <path id="DejaVuSans-61" d="M 2194 1759 
Q 1497 1759 1228 1600 
Q 959 1441 959 1056 
Q 959 750 1161 570 
Q 1363 391 1709 391 
Q 2188 391 2477 730 
Q 2766 1069 2766 1631 
L 2766 1759 
L 2194 1759 
z
M 3341 1997 
L 3341 0 
L 2766 0 
L 2766 531 
Q 2569 213 2275 61 
Q 1981 -91 1556 -91 
Q 1019 -91 701 211 
Q 384 513 384 1019 
Q 384 1609 779 1909 
Q 1175 2209 1959 2209 
L 2766 2209 
L 2766 2266 
Q 2766 2663 2505 2880 
Q 2244 3097 1772 3097 
Q 1472 3097 1187 3025 
Q 903 2953 641 2809 
L 641 3341 
Q 956 3463 1253 3523 
Q 1550 3584 1831 3584 
Q 2591 3584 2966 3190 
Q 3341 2797 3341 1997 
z
" transform="scale(0.015625)"/>
      <path id="DejaVuSans-74" d="M 1172 4494 
L 1172 3500 
L 2356 3500 
L 2356 3053 
L 1172 3053 
L 1172 1153 
Q 1172 725 1289 603 
Q 1406 481 1766 481 
L 2356 481 
L 2356 0 
L 1766 0 
Q 1100 0 847 248 
Q 594 497 594 1153 
L 594 3053 
L 172 3053 
L 172 3500 
L 594 3500 
L 594 4494 
L 1172 4494 
z
" transform="scale(0.015625)"/>
      <path id="DejaVuSans-32" d="M 1228 531 
L 3431 531 
L 3431 0 
L 469 0 
L 469 531 
Q 828 903 1448 1529 
Q 2069 2156 2228 2338 
Q 2531 2678 2651 2914 
Q 2772 3150 2772 3378 
Q 2772 3750 2511 3984 
Q 2250 4219 1831 4219 
Q 1534 4219 1204 4116 
Q 875 4013 500 3803 
L 500 4441 
Q 881 4594 1212 4672 
Q 1544 4750 1819 4750 
Q 2544 4750 2975 4387 
Q 3406 4025 3406 3419 
Q 3406 3131 3298 2873 
Q 3191 2616 2906 2266 
Q 2828 2175 2409 1742 
Q 1991 1309 1228 531 
z
" transform="scale(0.015625)"/>
     </defs>
     <use xlink:href="#DejaVuSans-49"/>
     <use xlink:href="#DejaVuSans-72" x="29.492188"/>
     <use xlink:href="#DejaVuSans-72" x="68.855469"/>
     <use xlink:href="#DejaVuSans-65" x="107.71875"/>
     <use xlink:href="#DejaVuSans-6c" x="169.242188"/>
     <use xlink:href="#DejaVuSans-65" x="197.025391"/>
     <use xlink:href="#DejaVuSans-76" x="258.548828"/>
     <use xlink:href="#DejaVuSans-61" x="317.728516"/>
     <use xlink:href="#DejaVuSans-6e" x="379.007812"/>
     <use xlink:href="#DejaVuSans-74" x="442.386719"/>
     <use xlink:href="#DejaVuSans-20" x="481.595703"/>
     <use xlink:href="#DejaVuSans-28" x="513.382812"/>
     <use xlink:href="#DejaVuSans-32" x="552.396484"/>
     <use xlink:href="#DejaVuSans-78" x="616.019531"/>
     <use xlink:href="#DejaVuSans-29" x="675.199219"/>
    </g>
   </g>
   <g id="text_8">
    <!-- 10.0% -->
    <g transform="translate(271.945801 214.827381)scale(0.1 -0.1)">
     <use xlink:href="#DejaVuSans-31"/>
     <use xlink:href="#DejaVuSans-30" x="63.623047"/>
     <use xlink:href="#DejaVuSans-2e" x="127.246094"/>
     <use xlink:href="#DejaVuSans-30" x="159.033203"/>
     <use xlink:href="#DejaVuSans-25" x="222.65625"/>
    </g>
   </g>
   <g id="text_9">
    <!-- Very irrelevant (1x) -->
    <g transform="translate(351.807718 195.604163)scale(0.1 -0.1)">
     <use xlink:href="#DejaVuSans-56"/>
     <use xlink:href="#DejaVuSans-65" x="60.658203"/>
     <use xlink:href="#DejaVuSans-72" x="122.181641"/>
     <use xlink:href="#DejaVuSans-79" x="163.294922"/>
     <use xlink:href="#DejaVuSans-20" x="222.474609"/>
     <use xlink:href="#DejaVuSans-69" x="254.261719"/>
     <use xlink:href="#DejaVuSans-72" x="282.044922"/>
     <use xlink:href="#DejaVuSans-72" x="321.408203"/>
     <use xlink:href="#DejaVuSans-65" x="360.271484"/>
     <use xlink:href="#DejaVuSans-6c" x="421.794922"/>
     <use xlink:href="#DejaVuSans-65" x="449.578125"/>
     <use xlink:href="#DejaVuSans-76" x="511.101562"/>
     <use xlink:href="#DejaVuSans-61" x="570.28125"/>
     <use xlink:href="#DejaVuSans-6e" x="631.560547"/>
     <use xlink:href="#DejaVuSans-74" x="694.939453"/>
     <use xlink:href="#DejaVuSans-20" x="734.148438"/>
     <use xlink:href="#DejaVuSans-28" x="765.935547"/>
     <use xlink:href="#DejaVuSans-31" x="804.949219"/>
     <use xlink:href="#DejaVuSans-78" x="868.572266"/>
     <use xlink:href="#DejaVuSans-29" x="927.751953"/>
    </g>
   </g>
   <g id="text_10">
    <!-- 5.0% -->
    <g transform="translate(286.53823 187.27835)scale(0.1 -0.1)">
     <use xlink:href="#DejaVuSans-35"/>
     <use xlink:href="#DejaVuSans-2e" x="63.623047"/>
     <use xlink:href="#DejaVuSans-30" x="95.410156"/>
     <use xlink:href="#DejaVuSans-25" x="159.033203"/>
    </g>
   </g>
  </g>
 </g>
</svg>
